<?xml version="1.0" encoding="UTF-8" standalone="no"?>
<svg
   xmlns:dc="http://purl.org/dc/elements/1.1/"
   xmlns:cc="http://creativecommons.org/ns#"
   xmlns:rdf="http://www.w3.org/1999/02/22-rdf-syntax-ns#"
   xmlns:svg="http://www.w3.org/2000/svg"
   xmlns="http://www.w3.org/2000/svg"
   viewBox="0 0 765 990"
   height="990"
   width="765"
   xml:space="preserve"
   version="1.1"
   id="svg3336"><metadata
     id="metadata3342"><rdf:RDF><cc:Work
         rdf:about=""><dc:format>image/svg+xml</dc:format><dc:type
           rdf:resource="http://purl.org/dc/dcmitype/StillImage" /><dc:title></dc:title></cc:Work></rdf:RDF></metadata><defs
     id="defs3340"><clipPath
       id="clipPath3350"
       clipPathUnits="userSpaceOnUse"><path
         style="clip-rule:evenodd"
         id="path3352"
         d="m 51.36,669.12 441.7,0 0,24.36 -441.7,0 0,-24.36 z" /></clipPath><clipPath
       id="clipPath3362"
       clipPathUnits="userSpaceOnUse"><path
         style="clip-rule:evenodd"
         id="path3364"
         d="m 51.36,654.6 441.7,0 0,13.56 -441.7,0 0,-13.56 z" /></clipPath><clipPath
       id="clipPath3374"
       clipPathUnits="userSpaceOnUse"><path
         style="clip-rule:evenodd"
         id="path3376"
         d="m 51.36,654.6 441.7,0 0,13.56 -441.7,0 0,-13.56 z" /></clipPath><clipPath
       id="clipPath3386"
       clipPathUnits="userSpaceOnUse"><path
         style="clip-rule:evenodd"
         id="path3388"
         d="m 51.36,640.06 441.7,0 0,13.584 -441.7,0 0,-13.584 z" /></clipPath><clipPath
       id="clipPath3398"
       clipPathUnits="userSpaceOnUse"><path
         style="clip-rule:evenodd"
         id="path3400"
         d="m 51.36,640.06 441.7,0 0,13.584 -441.7,0 0,-13.584 z" /></clipPath><clipPath
       id="clipPath3410"
       clipPathUnits="userSpaceOnUse"><path
         style="clip-rule:evenodd"
         id="path3412"
         d="m 51.36,625.54 441.7,0 0,13.56 -441.7,0 0,-13.56 z" /></clipPath><clipPath
       id="clipPath3422"
       clipPathUnits="userSpaceOnUse"><path
         style="clip-rule:evenodd"
         id="path3424"
         d="m 51.36,625.54 441.7,0 0,13.56 -441.7,0 0,-13.56 z" /></clipPath><clipPath
       id="clipPath3434"
       clipPathUnits="userSpaceOnUse"><path
         style="clip-rule:evenodd"
         id="path3436"
         d="m 51.36,611.02 441.7,0 0,13.56 -441.7,0 0,-13.56 z" /></clipPath><clipPath
       id="clipPath3446"
       clipPathUnits="userSpaceOnUse"><path
         style="clip-rule:evenodd"
         id="path3448"
         d="m 51.36,611.02 441.7,0 0,13.56 -441.7,0 0,-13.56 z" /></clipPath><clipPath
       id="clipPath3458"
       clipPathUnits="userSpaceOnUse"><path
         style="clip-rule:evenodd"
         id="path3460"
         d="m 51.36,596.5 441.7,0 0,13.56 -441.7,0 0,-13.56 z" /></clipPath><clipPath
       id="clipPath3470"
       clipPathUnits="userSpaceOnUse"><path
         style="clip-rule:evenodd"
         id="path3472"
         d="m 51.36,596.5 441.7,0 0,13.56 -441.7,0 0,-13.56 z" /></clipPath><clipPath
       id="clipPath3482"
       clipPathUnits="userSpaceOnUse"><path
         style="clip-rule:evenodd"
         id="path3484"
         d="m 51.36,581.98 441.7,0 0,13.56 -441.7,0 0,-13.56 z" /></clipPath><clipPath
       id="clipPath3494"
       clipPathUnits="userSpaceOnUse"><path
         style="clip-rule:evenodd"
         id="path3496"
         d="m 51.36,581.98 441.7,0 0,13.56 -441.7,0 0,-13.56 z" /></clipPath><clipPath
       id="clipPath3506"
       clipPathUnits="userSpaceOnUse"><path
         style="clip-rule:evenodd"
         id="path3508"
         d="m 51.36,542.14 441.7,0 0,24.36 -441.7,0 0,-24.36 z" /></clipPath><clipPath
       id="clipPath3518"
       clipPathUnits="userSpaceOnUse"><path
         style="clip-rule:evenodd"
         id="path3520"
         d="m 51.36,527.62 441.7,0 0,13.56 -441.7,0 0,-13.56 z" /></clipPath><clipPath
       id="clipPath3530"
       clipPathUnits="userSpaceOnUse"><path
         style="clip-rule:evenodd"
         id="path3532"
         d="m 51.36,527.62 441.7,0 0,13.56 -441.7,0 0,-13.56 z" /></clipPath><clipPath
       id="clipPath3542"
       clipPathUnits="userSpaceOnUse"><path
         style="clip-rule:evenodd"
         id="path3544"
         d="m 51.36,513.07 441.7,0 0,13.584 -441.7,0 0,-13.584 z" /></clipPath><clipPath
       id="clipPath3554"
       clipPathUnits="userSpaceOnUse"><path
         style="clip-rule:evenodd"
         id="path3556"
         d="m 51.36,513.07 441.7,0 0,13.584 -441.7,0 0,-13.584 z" /></clipPath><clipPath
       id="clipPath3566"
       clipPathUnits="userSpaceOnUse"><path
         style="clip-rule:evenodd"
         id="path3568"
         d="m 51.36,498.55 441.7,0 0,13.56 -441.7,0 0,-13.56 z" /></clipPath><clipPath
       id="clipPath3578"
       clipPathUnits="userSpaceOnUse"><path
         style="clip-rule:evenodd"
         id="path3580"
         d="m 51.36,498.55 441.7,0 0,13.56 -441.7,0 0,-13.56 z" /></clipPath><clipPath
       id="clipPath3590"
       clipPathUnits="userSpaceOnUse"><path
         style="clip-rule:evenodd"
         id="path3592"
         d="m 51.36,484.03 441.7,0 0,13.56 -441.7,0 0,-13.56 z" /></clipPath><clipPath
       id="clipPath3602"
       clipPathUnits="userSpaceOnUse"><path
         style="clip-rule:evenodd"
         id="path3604"
         d="m 51.36,484.03 441.7,0 0,13.56 -441.7,0 0,-13.56 z" /></clipPath><clipPath
       id="clipPath3614"
       clipPathUnits="userSpaceOnUse"><path
         style="clip-rule:evenodd"
         id="path3616"
         d="m 51.36,469.51 441.7,0 0,13.56 -441.7,0 0,-13.56 z" /></clipPath><clipPath
       id="clipPath3626"
       clipPathUnits="userSpaceOnUse"><path
         style="clip-rule:evenodd"
         id="path3628"
         d="m 51.36,469.51 441.7,0 0,13.56 -441.7,0 0,-13.56 z" /></clipPath><clipPath
       id="clipPath3638"
       clipPathUnits="userSpaceOnUse"><path
         style="clip-rule:evenodd"
         id="path3640"
         d="m 51.36,454.99 441.7,0 0,13.56 -441.7,0 0,-13.56 z" /></clipPath><clipPath
       id="clipPath3650"
       clipPathUnits="userSpaceOnUse"><path
         style="clip-rule:evenodd"
         id="path3652"
         d="m 51.36,454.99 441.7,0 0,13.56 -441.7,0 0,-13.56 z" /></clipPath><clipPath
       id="clipPath3662"
       clipPathUnits="userSpaceOnUse"><path
         style="clip-rule:evenodd"
         id="path3664"
         d="m 49.44,451.99 445.66,0 0,286.97 -445.66,0 0,-286.97 z" /></clipPath></defs><g
     transform="matrix(1.25,0,0,-1.25,0,990)"
     id="g3344"><g
       id="g3346"><g
         clip-path="url(#clipPath3350)"
         id="g3348"><text
           id="text3354"
           style="font-variant:normal;font-weight:normal;font-size:20.04000092px;font-family:Calibri;-inkscape-font-specification:Calibri;writing-mode:lr-tb;fill:#000000;fill-opacity:1;fill-rule:nonzero;stroke:none"
           transform="matrix(1,0,0,-1,105.6,674.64)"><tspan
             id="tspan3356"
             y="0"
             x="0 9.7594805 24.007919 28.617121 35.330521 42.043919 52.023842">Twitter</tspan></text>
</g></g><g
       id="g3358"><g
         clip-path="url(#clipPath3362)"
         id="g3360"><text
           id="text3366"
           style="font-variant:normal;font-weight:normal;font-size:11.03999996px;font-family:Calibri;-inkscape-font-specification:Calibri;writing-mode:lr-tb;fill:#000000;fill-opacity:1;fill-rule:nonzero;stroke:none"
           transform="matrix(1,0,0,-1,104.4,657.72)"><tspan
             id="tspan3368"
             y="0"
             x="0 4.66992 7.2091198 12.94992 18.44784 23.736 27.588961 30.084 39.5784 45.451679 51.214561 56.712479 59.251678 62.011681 64.506721 69.927361 78.79248 84.555359 90.053284 95.849281 101.59008 104.12928 109.87008 115.02576 117.5208 123.17328 128.80368">Linear Model, Embedding 128</tspan></text>
</g></g><g
       id="g3370"><g
         clip-path="url(#clipPath3374)"
         id="g3372"><text
           id="text3378"
           style="font-variant:normal;font-weight:normal;font-size:11.03999996px;font-family:Calibri;-inkscape-font-specification:Calibri;writing-mode:lr-tb;fill:#000000;fill-opacity:1;fill-rule:nonzero;stroke:none"
           transform="matrix(1,0,0,-1,457.42,657.72)"><tspan
             id="tspan3380"
             y="0"
             x="0 5.6304002 11.2608 14.04288 19.64016 25.292641">92.79%</tspan></text>
</g></g><g
       id="g3382"><g
         clip-path="url(#clipPath3386)"
         id="g3384"><text
           id="text3390"
           style="font-variant:normal;font-weight:normal;font-size:11.03999996px;font-family:Calibri;-inkscape-font-specification:Calibri;writing-mode:lr-tb;fill:#000000;fill-opacity:1;fill-rule:nonzero;stroke:none"
           transform="matrix(1,0,0,-1,104.4,643.18)"><tspan
             id="tspan3392"
             y="0"
             x="0 4.66992 9.7372799 15.11376 24.575041 27.335039 29.83008 35.835838 38.375038 44.13792 46.67712 50.530079 56.028 60.697922 64.396317 66.935516 72.8088 78.571678 83.85984 86.39904 88.894081 91.433281 96.721443 101.72256 107.22048 111.07344 113.83344 116.3616 122.35632 129.444 136.52065 139.01569 146.34624 152.10912 155.80753 158.33568 163.40305 168.65808 171.19728 175.51392">LSTM, Bidirectional layer, RNN Out False</tspan></text>
</g></g><g
       id="g3394"><g
         clip-path="url(#clipPath3398)"
         id="g3396"><text
           id="text3402"
           style="font-variant:normal;font-weight:normal;font-size:11.03999996px;font-family:Calibri;-inkscape-font-specification:Calibri;writing-mode:lr-tb;fill:#000000;fill-opacity:1;fill-rule:nonzero;stroke:none"
           transform="matrix(1,0,0,-1,457.42,643.18)"><tspan
             id="tspan3404"
             y="0"
             x="0 5.6304002 11.2608 14.04288 19.64016 25.292641">54.15%</tspan></text>
</g></g><g
       id="g3406"><g
         clip-path="url(#clipPath3410)"
         id="g3408"><text
           id="text3414"
           style="font-variant:normal;font-weight:normal;font-size:11.03999996px;font-family:Calibri;-inkscape-font-specification:Calibri;writing-mode:lr-tb;fill:#000000;fill-opacity:1;fill-rule:nonzero;stroke:none"
           transform="matrix(1,0,0,-1,104.4,628.66)"><tspan
             id="tspan3416"
             y="0"
             x="0 6.9662399 12.96096 20.048639 22.80864 25.30368 30.94512 33.440159 38.13216 43.420319 48.42144 53.96352 57.816479 62.133121 64.89312 67.388161 73.382881 80.514717 87.558243 90.053284 97.383842 103.14672 106.84512 109.37328 114.74976 118.60272 124.39872">GRU, 2 Layers, RNN Out True</tspan></text>
</g></g><g
       id="g3418"><g
         clip-path="url(#clipPath3422)"
         id="g3420"><text
           id="text3426"
           style="font-variant:normal;font-weight:normal;font-size:11.03999996px;font-family:Calibri;-inkscape-font-specification:Calibri;writing-mode:lr-tb;fill:#000000;fill-opacity:1;fill-rule:nonzero;stroke:none"
           transform="matrix(1,0,0,-1,457.42,628.66)"><tspan
             id="tspan3428"
             y="0"
             x="0 5.6304002 11.2608 14.04288 19.64016 25.292641">90.69%</tspan></text>
</g></g><g
       id="g3430"><g
         clip-path="url(#clipPath3434)"
         id="g3432"><text
           id="text3438"
           style="font-variant:normal;font-weight:normal;font-size:11.03999996px;font-family:Calibri;-inkscape-font-specification:Calibri;writing-mode:lr-tb;fill:#000000;fill-opacity:1;fill-rule:nonzero;stroke:none"
           transform="matrix(1,0,0,-1,104.4,614.14)"><tspan
             id="tspan3440"
             y="0"
             x="0 6.9662399 12.96096 20.048639 22.80864 25.30368 30.6912 39.589439 45.352322 50.850239 56.64624 62.387039 64.926239 70.667038 75.822723 78.317757 83.970238 89.600639 95.231041 97.991043 100.48608 107.364 109.9032 115.63296 121.39584 126.89376 132.68976 135.1848 140.82623 146.45663 149.21664 151.71169 157.70641 164.83824 171.89281 174.38783 181.7184 187.48128 191.17969 193.70784 199.08432 202.93729 208.73328">GRU, Embedding 128, Hidden 64, RNN Out True</tspan></text>
</g></g><g
       id="g3442"><g
         clip-path="url(#clipPath3446)"
         id="g3444"><text
           id="text3450"
           style="font-variant:normal;font-weight:normal;font-size:11.03999996px;font-family:Calibri;-inkscape-font-specification:Calibri;writing-mode:lr-tb;fill:#000000;fill-opacity:1;fill-rule:nonzero;stroke:none"
           transform="matrix(1,0,0,-1,457.42,614.14)"><tspan
             id="tspan3452"
             y="0"
             x="0 5.6304002 11.2608 14.04288 19.64016 25.292641">91.62%</tspan></text>
</g></g><g
       id="g3454"><g
         clip-path="url(#clipPath3458)"
         id="g3456"><text
           id="text3462"
           style="font-variant:normal;font-weight:normal;font-size:11.03999996px;font-family:Calibri;-inkscape-font-specification:Calibri;writing-mode:lr-tb;fill:#000000;fill-opacity:1;fill-rule:nonzero;stroke:none"
           transform="matrix(1,0,0,-1,104.4,599.62)"><tspan
             id="tspan3464"
             y="0"
             x="0 5.0673599 10.56528 16.31712 22.08 27.577921 33.37392 37.072319 39.611519 44.899681 47.394718 49.889759 55.774078 62.905918 69.94944 72.709442 75.204483 80.856956 83.351997 88.043999 93.332161 98.333282 103.87536 107.72832 110.48832 112.98336 118.6248 121.11984 127.00416 132.88847 138.65137 143.68559 146.46768 148.96272 154.70352 160.23456 164.08752 169.83936 175.33728">Sequential CNN, 1 Layer, 3 Conv. Kernel</tspan></text>
</g></g><g
       id="g3466"><g
         clip-path="url(#clipPath3470)"
         id="g3468"><text
           id="text3474"
           style="font-variant:normal;font-weight:normal;font-size:11.03999996px;font-family:Calibri;-inkscape-font-specification:Calibri;writing-mode:lr-tb;fill:#000000;fill-opacity:1;fill-rule:nonzero;stroke:none"
           transform="matrix(1,0,0,-1,457.42,599.62)"><tspan
             id="tspan3476"
             y="0"
             x="0 5.6304002 11.2608 14.04288 19.64016 25.292641">90.69%</tspan></text>
</g></g><g
       id="g3478"><g
         clip-path="url(#clipPath3482)"
         id="g3480"><text
           id="text3486"
           style="font-variant:normal;font-weight:normal;font-size:11.03999996px;font-family:Calibri;-inkscape-font-specification:Calibri;writing-mode:lr-tb;fill:#000000;fill-opacity:1;fill-rule:nonzero;stroke:none"
           transform="matrix(1,0,0,-1,104.4,585.1)"><tspan
             id="tspan3488"
             y="0"
             x="0 5.7518401 11.04 14.89296 20.18112 22.676161 25.215361 30.71328 33.25248 35.74752 41.63184 48.719521 55.796162 58.55616 61.051201 70.545601 73.084801 78.8256 81.320641 87.094559 92.592484 96.445442 102.24144 107.73936 110.27856 112.7736 118.404 121.164 123.65904 133.15344 138.4416 143.22192 145.73904 151.47984 157.01088 160.86385 166.61568 172.1136 174.6528 177.14784 182.80032 185.56032 188.05536 193.46497 202.33008 208.09296 213.59088 219.38689 225.12769 227.66689 233.40768 238.56335 241.0584 246.71088 252.34128">Parallel CNN, Min Kernel 1, Max Kernel 4, Embedding 128</tspan></text>
</g></g><g
       id="g3490"><g
         clip-path="url(#clipPath3494)"
         id="g3492"><text
           id="text3498"
           style="font-variant:normal;font-weight:normal;font-size:11.03999996px;font-family:Calibri;-inkscape-font-specification:Calibri;writing-mode:lr-tb;fill:#000000;fill-opacity:1;fill-rule:nonzero;stroke:none"
           transform="matrix(1,0,0,-1,457.42,585.1)"><tspan
             id="tspan3500"
             y="0"
             x="0 5.6304002 11.2608 14.04288 19.64016 25.292641">92.94%</tspan></text>
</g></g><g
       id="g3502"><g
         clip-path="url(#clipPath3506)"
         id="g3504"><text
           id="text3510"
           style="font-variant:normal;font-weight:normal;font-size:20.04000092px;font-family:Calibri;-inkscape-font-specification:Calibri;writing-mode:lr-tb;fill:#000000;fill-opacity:1;fill-rule:nonzero;stroke:none"
           transform="matrix(1,0,0,-1,105.6,547.66)"><tspan
             id="tspan3512"
             y="0"
             x="0 12.48492 22.46484 32.063999 42.584999 47.194199 51.72324 62.24424 72.224159">Headlines</tspan></text>
</g></g><g
       id="g3514"><g
         clip-path="url(#clipPath3518)"
         id="g3516"><text
           id="text3522"
           style="font-variant:normal;font-weight:normal;font-size:11.03999996px;font-family:Calibri;-inkscape-font-specification:Calibri;writing-mode:lr-tb;fill:#000000;fill-opacity:1;fill-rule:nonzero;stroke:none"
           transform="matrix(1,0,0,-1,104.4,530.74)"><tspan
             id="tspan3524"
             y="0"
             x="0 4.66992 7.2091198 12.94992 18.44784 23.736 27.588961 30.084 39.5784 45.451679 51.214561 56.712479 59.251678 62.011681 64.506721 69.927361 78.79248 84.555359 90.053284 95.849281 101.59008 104.12928 109.87008 115.02576 117.5208 123.17328">Linear Model, Embedding 64</tspan></text>
</g></g><g
       id="g3526"><g
         clip-path="url(#clipPath3530)"
         id="g3528"><text
           id="text3534"
           style="font-variant:normal;font-weight:normal;font-size:11.03999996px;font-family:Calibri;-inkscape-font-specification:Calibri;writing-mode:lr-tb;fill:#000000;fill-opacity:1;fill-rule:nonzero;stroke:none"
           transform="matrix(1,0,0,-1,457.42,530.74)"><tspan
             id="tspan3536"
             y="0"
             x="0 5.6304002 11.2608 14.04288 19.64016 25.292641">93.76%</tspan></text>
</g></g><g
       id="g3538"><g
         clip-path="url(#clipPath3542)"
         id="g3540"><text
           id="text3546"
           style="font-variant:normal;font-weight:normal;font-size:11.03999996px;font-family:Calibri;-inkscape-font-specification:Calibri;writing-mode:lr-tb;fill:#000000;fill-opacity:1;fill-rule:nonzero;stroke:none"
           transform="matrix(1,0,0,-1,104.4,516.22)"><tspan
             id="tspan3548"
             y="0"
             x="0 4.66992 9.7372799 15.11376 24.575041 27.335039 29.83008 35.835838 38.375038 44.13792 46.67712 50.530079 56.028 60.697922 64.396317 66.935516 72.8088 78.571678 83.85984 86.39904 88.894081 91.433281 96.721443 101.72256 107.22048 111.07344 113.83344 116.3616 122.35632 129.444 136.52065 139.01569 146.34624 152.10912 155.80753 161.60352 167.34431 171.04272 173.57088 178.63824 183.89328 186.43248 190.74911">LSTM, Bidirectional layer, RNN Output False</tspan></text>
</g></g><g
       id="g3550"><g
         clip-path="url(#clipPath3554)"
         id="g3552"><text
           id="text3558"
           style="font-variant:normal;font-weight:normal;font-size:11.03999996px;font-family:Calibri;-inkscape-font-specification:Calibri;writing-mode:lr-tb;fill:#000000;fill-opacity:1;fill-rule:nonzero;stroke:none"
           transform="matrix(1,0,0,-1,457.42,516.22)"><tspan
             id="tspan3560"
             y="0"
             x="0 5.6304002 11.2608 14.04288 19.64016 25.292641">36.13%</tspan></text>
</g></g><g
       id="g3562"><g
         clip-path="url(#clipPath3566)"
         id="g3564"><text
           id="text3570"
           style="font-variant:normal;font-weight:normal;font-size:11.03999996px;font-family:Calibri;-inkscape-font-specification:Calibri;writing-mode:lr-tb;fill:#000000;fill-opacity:1;fill-rule:nonzero;stroke:none"
           transform="matrix(1,0,0,-1,104.4,501.67)"><tspan
             id="tspan3572"
             y="0"
             x="0 6.9662399 12.96096 20.048639 22.80864 25.30368 30.94512 33.440159 38.13216 43.420319 48.42144 53.96352 57.816479 62.133121 64.89312 67.388161 73.382881 80.514717 87.558243 90.053284 97.383842 103.14672 106.84512 109.37328 114.74976 118.60272 124.39872">GRU, 2 Layers, RNN Out True</tspan></text>
</g></g><g
       id="g3574"><g
         clip-path="url(#clipPath3578)"
         id="g3576"><text
           id="text3582"
           style="font-variant:normal;font-weight:normal;font-size:11.03999996px;font-family:Calibri;-inkscape-font-specification:Calibri;writing-mode:lr-tb;fill:#000000;fill-opacity:1;fill-rule:nonzero;stroke:none"
           transform="matrix(1,0,0,-1,457.42,501.67)"><tspan
             id="tspan3584"
             y="0"
             x="0 5.6304002 11.2608 14.04288 19.64016 25.292641">36.14%</tspan></text>
</g></g><g
       id="g3586"><g
         clip-path="url(#clipPath3590)"
         id="g3588"><text
           id="text3594"
           style="font-variant:normal;font-weight:normal;font-size:11.03999996px;font-family:Calibri;-inkscape-font-specification:Calibri;writing-mode:lr-tb;fill:#000000;fill-opacity:1;fill-rule:nonzero;stroke:none"
           transform="matrix(1,0,0,-1,104.4,487.15)"><tspan
             id="tspan3596"
             y="0"
             x="0 6.9662399 12.96096 20.048639 22.80864 25.30368 30.6912 39.589439 45.352322 50.850239 56.64624 62.387039 64.926239 70.667038 75.822723 78.317757 83.970238 89.600639 92.360641 94.855682 101.7336 104.2728 110.00256 115.76544 121.26336 127.05936 129.5544 135.19585 140.82623 143.58624 146.08128 152.076 159.20784 166.26241 168.75745 176.088 181.85088 185.54929 188.07744 193.14481 198.39984 200.93904 205.25568">GRU, Embedding 64, Hidden 32, RNN Out False</tspan></text>
</g></g><g
       id="g3598"><g
         clip-path="url(#clipPath3602)"
         id="g3600"><text
           id="text3606"
           style="font-variant:normal;font-weight:normal;font-size:11.03999996px;font-family:Calibri;-inkscape-font-specification:Calibri;writing-mode:lr-tb;fill:#000000;fill-opacity:1;fill-rule:nonzero;stroke:none"
           transform="matrix(1,0,0,-1,457.42,487.15)"><tspan
             id="tspan3608"
             y="0"
             x="0 5.6304002 11.2608 14.04288 19.64016 25.292641">94.11%</tspan></text>
</g></g><g
       id="g3610"><g
         clip-path="url(#clipPath3614)"
         id="g3612"><text
           id="text3618"
           style="font-variant:normal;font-weight:normal;font-size:11.03999996px;font-family:Calibri;-inkscape-font-specification:Calibri;writing-mode:lr-tb;fill:#000000;fill-opacity:1;fill-rule:nonzero;stroke:none"
           transform="matrix(1,0,0,-1,104.4,472.63)"><tspan
             id="tspan3620"
             y="0"
             x="0 5.0673599 10.56528 16.31712 22.08 27.577921 33.37392 37.072319 39.611519 44.899681 47.394718 49.889759 55.774078 62.905918 69.94944 72.709442 75.204483 80.856956 83.351997 88.043999 93.332161 98.333282 103.87536 107.72832 110.48832 112.98336 118.6248 121.11984 127.00416 132.88847 138.65137 143.68559 146.46768 148.96272 154.70352 160.23456 164.08752 169.83936 175.33728">Sequential CNN, 1 Layer, 3 Conv. Kernel</tspan></text>
</g></g><g
       id="g3622"><g
         clip-path="url(#clipPath3626)"
         id="g3624"><text
           id="text3630"
           style="font-variant:normal;font-weight:normal;font-size:11.03999996px;font-family:Calibri;-inkscape-font-specification:Calibri;writing-mode:lr-tb;fill:#000000;fill-opacity:1;fill-rule:nonzero;stroke:none"
           transform="matrix(1,0,0,-1,457.42,472.63)"><tspan
             id="tspan3632"
             y="0"
             x="0 5.6304002 11.2608 14.04288 19.64016 25.292641">93.12%</tspan></text>
</g></g><g
       id="g3634"><g
         clip-path="url(#clipPath3638)"
         id="g3636"><text
           id="text3642"
           style="font-variant:normal;font-weight:normal;font-size:11.03999996px;font-family:Calibri;-inkscape-font-specification:Calibri;writing-mode:lr-tb;fill:#000000;fill-opacity:1;fill-rule:nonzero;stroke:none"
           transform="matrix(1,0,0,-1,104.4,458.11)"><tspan
             id="tspan3644"
             y="0"
             x="0 5.7518401 11.04 14.89296 20.18112 22.676161 25.215361 30.71328 33.25248 35.74752 41.63184 48.719521 55.796162 58.55616 61.051201 70.545601 73.084801 78.8256 81.320641 87.094559 92.592484 96.445442 102.24144 107.73936 110.27856 112.7736 118.404 121.164 123.65904 133.15344 138.4416 143.22192 145.73904 151.47984 157.01088 160.86385 166.61568 172.1136 174.6528 177.14784 182.80032 185.56032 188.05536 193.46497 202.33008 208.09296 213.59088 219.38689 225.12769 227.66689 233.40768 238.56335 241.0584 246.71088">Parallel CNN, Min Kernel 1, Max Kernel 3, Embedding 32</tspan></text>
</g></g><g
       id="g3646"><g
         clip-path="url(#clipPath3650)"
         id="g3648"><text
           id="text3654"
           style="font-variant:normal;font-weight:normal;font-size:11.03999996px;font-family:Calibri;-inkscape-font-specification:Calibri;writing-mode:lr-tb;fill:#000000;fill-opacity:1;fill-rule:nonzero;stroke:none"
           transform="matrix(1,0,0,-1,457.42,458.11)"><tspan
             id="tspan3656"
             y="0"
             x="0 5.6304002 11.2608 14.04288 19.64016 25.292641">93.93%</tspan></text>
</g></g><g
       id="g3658"><g
         clip-path="url(#clipPath3662)"
         id="g3660"><path
           id="path3666"
           style="fill:none;stroke:#000000;stroke-width:0.14;stroke-linecap:square;stroke-linejoin:round;stroke-miterlimit:10;stroke-dasharray:none;stroke-opacity:1"
           d="m 102.06,694.38 0,-113.3" /><path
           id="path3668"
           style="fill:#000000;fill-opacity:1;fill-rule:evenodd;stroke:none"
           d="m 102,581.02 0.96,0 0,113.42 -0.96,0 0,-113.42 z" /><path
           id="path3670"
           style="fill:none;stroke:#000000;stroke-width:0.14;stroke-linecap:square;stroke-linejoin:round;stroke-miterlimit:10;stroke-dasharray:none;stroke-opacity:1"
           d="m 441.04,693.42 0,-111.38" /><path
           id="path3672"
           style="fill:#000000;fill-opacity:1;fill-rule:evenodd;stroke:none"
           d="m 440.98,581.98 0.12,0 0,111.5 -0.12,0 0,-111.5 z" /><path
           id="path3674"
           style="fill:none;stroke:#000000;stroke-width:0.14;stroke-linecap:square;stroke-linejoin:round;stroke-miterlimit:10;stroke-dasharray:none;stroke-opacity:1"
           d="m 492.16,693.42 0,-112.34" /><path
           id="path3676"
           style="fill:#000000;fill-opacity:1;fill-rule:evenodd;stroke:none"
           d="m 492.1,581.02 0.95999,0 0,112.46 -0.95999,0 0,-112.46 z" /><path
           id="path3678"
           style="fill:none;stroke:#000000;stroke-width:0.14;stroke-linecap:square;stroke-linejoin:round;stroke-miterlimit:10;stroke-dasharray:none;stroke-opacity:1"
           d="m 102.06,567.4 0,-113.31" /><path
           id="path3680"
           style="fill:#000000;fill-opacity:1;fill-rule:evenodd;stroke:none"
           d="m 102,454.03 0.96,0 0,113.42 -0.96,0 0,-113.42 z" /><path
           id="path3682"
           style="fill:none;stroke:#000000;stroke-width:0.14;stroke-linecap:square;stroke-linejoin:round;stroke-miterlimit:10;stroke-dasharray:none;stroke-opacity:1"
           d="m 441.04,566.44 0,-111.39" /><path
           id="path3684"
           style="fill:#000000;fill-opacity:1;fill-rule:evenodd;stroke:none"
           d="m 440.98,454.99 0.12,0 0,111.5 -0.12,0 0,-111.5 z" /><path
           id="path3686"
           style="fill:none;stroke:#000000;stroke-width:0.14;stroke-linecap:square;stroke-linejoin:round;stroke-miterlimit:10;stroke-dasharray:none;stroke-opacity:1"
           d="m 492.16,566.44 0,-112.35" /><path
           id="path3688"
           style="fill:#000000;fill-opacity:1;fill-rule:evenodd;stroke:none"
           d="m 492.1,454.03 0.95999,0 0,112.46 -0.95999,0 0,-112.46 z" /><path
           id="path3690"
           style="fill:none;stroke:#000000;stroke-width:0.14;stroke-linecap:square;stroke-linejoin:round;stroke-miterlimit:10;stroke-dasharray:none;stroke-opacity:1"
           d="m 103.02,694.38 389.98,0" /><path
           id="path3692"
           style="fill:#000000;fill-opacity:1;fill-rule:evenodd;stroke:none"
           d="m 102.96,693.48 390.1,0 0,0.96001 -390.1,0 0,-0.96001 z" /><path
           id="path3694"
           style="fill:none;stroke:#000000;stroke-width:0.14;stroke-linecap:square;stroke-linejoin:round;stroke-miterlimit:10;stroke-dasharray:none;stroke-opacity:1"
           d="m 103.02,668.58 389.02,0" /><path
           id="path3696"
           style="fill:#000000;fill-opacity:1;fill-rule:evenodd;stroke:none"
           d="m 102.96,668.52 389.14,0 0,0.12 -389.14,0 0,-0.12 z" /><path
           id="path3698"
           style="fill:none;stroke:#000000;stroke-width:0.14;stroke-linecap:square;stroke-linejoin:round;stroke-miterlimit:10;stroke-dasharray:none;stroke-opacity:1"
           d="m 103.02,654.06 389.02,0" /><path
           id="path3700"
           style="fill:#000000;fill-opacity:1;fill-rule:evenodd;stroke:none"
           d="m 102.96,654 389.14,0 0,0.12 -389.14,0 0,-0.12 z" /><path
           id="path3702"
           style="fill:none;stroke:#000000;stroke-width:0.14;stroke-linecap:square;stroke-linejoin:round;stroke-miterlimit:10;stroke-dasharray:none;stroke-opacity:1"
           d="m 103.02,639.52 389.02,0" /><path
           id="path3704"
           style="fill:#000000;fill-opacity:1;fill-rule:evenodd;stroke:none"
           d="m 102.96,639.46 389.14,0 0,0.12001 -389.14,0 0,-0.12001 z" /><path
           id="path3706"
           style="fill:none;stroke:#000000;stroke-width:0.14;stroke-linecap:square;stroke-linejoin:round;stroke-miterlimit:10;stroke-dasharray:none;stroke-opacity:1"
           d="m 103.02,625 389.02,0" /><path
           id="path3708"
           style="fill:#000000;fill-opacity:1;fill-rule:evenodd;stroke:none"
           d="m 102.96,624.94 389.14,0 0,0.12 -389.14,0 0,-0.12 z" /><path
           id="path3710"
           style="fill:none;stroke:#000000;stroke-width:0.14;stroke-linecap:square;stroke-linejoin:round;stroke-miterlimit:10;stroke-dasharray:none;stroke-opacity:1"
           d="m 103.02,610.48 389.02,0" /><path
           id="path3712"
           style="fill:#000000;fill-opacity:1;fill-rule:evenodd;stroke:none"
           d="m 102.96,610.42 389.14,0 0,0.12 -389.14,0 0,-0.12 z" /><path
           id="path3714"
           style="fill:none;stroke:#000000;stroke-width:0.14;stroke-linecap:square;stroke-linejoin:round;stroke-miterlimit:10;stroke-dasharray:none;stroke-opacity:1"
           d="m 103.02,595.96 389.02,0" /><path
           id="path3716"
           style="fill:#000000;fill-opacity:1;fill-rule:evenodd;stroke:none"
           d="m 102.96,595.9 389.14,0 0,0.12 -389.14,0 0,-0.12 z" /><path
           id="path3718"
           style="fill:none;stroke:#000000;stroke-width:0.14;stroke-linecap:square;stroke-linejoin:round;stroke-miterlimit:10;stroke-dasharray:none;stroke-opacity:1"
           d="m 103.02,581.92 389.98,0" /><path
           id="path3720"
           style="fill:#000000;fill-opacity:1;fill-rule:evenodd;stroke:none"
           d="m 102.96,581.02 390.1,0 0,0.96001 -390.1,0 0,-0.96001 z" /><path
           id="path3722"
           style="fill:none;stroke:#000000;stroke-width:0.14;stroke-linecap:square;stroke-linejoin:round;stroke-miterlimit:10;stroke-dasharray:none;stroke-opacity:1"
           d="m 103.02,567.4 389.98,0" /><path
           id="path3724"
           style="fill:#000000;fill-opacity:1;fill-rule:evenodd;stroke:none"
           d="m 102.96,566.5 390.1,0 0,0.95999 -390.1,0 0,-0.95999 z" /><path
           id="path3726"
           style="fill:none;stroke:#000000;stroke-width:0.14;stroke-linecap:square;stroke-linejoin:round;stroke-miterlimit:10;stroke-dasharray:none;stroke-opacity:1"
           d="m 103.02,541.6 389.02,0" /><path
           id="path3728"
           style="fill:#000000;fill-opacity:1;fill-rule:evenodd;stroke:none"
           d="m 102.96,541.54 389.14,0 0,0.12 -389.14,0 0,-0.12 z" /><path
           id="path3730"
           style="fill:none;stroke:#000000;stroke-width:0.14;stroke-linecap:square;stroke-linejoin:round;stroke-miterlimit:10;stroke-dasharray:none;stroke-opacity:1"
           d="m 103.02,527.08 389.02,0" /><path
           id="path3732"
           style="fill:#000000;fill-opacity:1;fill-rule:evenodd;stroke:none"
           d="m 102.96,527.02 389.14,0 0,0.12 -389.14,0 0,-0.12 z" /><path
           id="path3734"
           style="fill:none;stroke:#000000;stroke-width:0.14;stroke-linecap:square;stroke-linejoin:round;stroke-miterlimit:10;stroke-dasharray:none;stroke-opacity:1"
           d="m 103.02,512.53 389.02,0" /><path
           id="path3736"
           style="fill:#000000;fill-opacity:1;fill-rule:evenodd;stroke:none"
           d="m 102.96,512.47 389.14,0 0,0.12003 -389.14,0 0,-0.12003 z" /><path
           id="path3738"
           style="fill:none;stroke:#000000;stroke-width:0.14;stroke-linecap:square;stroke-linejoin:round;stroke-miterlimit:10;stroke-dasharray:none;stroke-opacity:1"
           d="m 103.02,498.01 389.02,0" /><path
           id="path3740"
           style="fill:#000000;fill-opacity:1;fill-rule:evenodd;stroke:none"
           d="m 102.96,497.95 389.14,0 0,0.12 -389.14,0 0,-0.12 z" /><path
           id="path3742"
           style="fill:none;stroke:#000000;stroke-width:0.14;stroke-linecap:square;stroke-linejoin:round;stroke-miterlimit:10;stroke-dasharray:none;stroke-opacity:1"
           d="m 103.02,483.49 389.02,0" /><path
           id="path3744"
           style="fill:#000000;fill-opacity:1;fill-rule:evenodd;stroke:none"
           d="m 102.96,483.43 389.14,0 0,0.12 -389.14,0 0,-0.12 z" /><path
           id="path3746"
           style="fill:none;stroke:#000000;stroke-width:0.14;stroke-linecap:square;stroke-linejoin:round;stroke-miterlimit:10;stroke-dasharray:none;stroke-opacity:1"
           d="m 103.02,468.97 389.02,0" /><path
           id="path3748"
           style="fill:#000000;fill-opacity:1;fill-rule:evenodd;stroke:none"
           d="m 102.96,468.91 389.14,0 0,0.12 -389.14,0 0,-0.12 z" /><path
           id="path3750"
           style="fill:none;stroke:#000000;stroke-width:0.14;stroke-linecap:square;stroke-linejoin:round;stroke-miterlimit:10;stroke-dasharray:none;stroke-opacity:1"
           d="m 103.02,454.93 389.98,0" /><path
           id="path3752"
           style="fill:#000000;fill-opacity:1;fill-rule:evenodd;stroke:none"
           d="m 102.96,454.03 390.1,0 0,0.96002 -390.1,0 0,-0.96002 z" /></g></g></g></svg>